<?xml version="1.0" encoding="UTF-8"?> <svg xmlns="http://www.w3.org/2000/svg" width="84" height="70" viewBox="0 0 84 70" fill="none"><path d="M84 28L84 42L70 42L70 28L84 28Z" fill="#EB4247"></path><path d="M70 14L70 28L56 28L56 14L70 14Z" fill="#EB4247"></path><path d="M42 28L42 42L28 42L28 28L42 28Z" fill="#EB4247"></path><path d="M28 28L28 42L14 42L14 28L28 28Z" fill="#EB4247"></path><path d="M14 28L14 42L0 42L6.11959e-07 28L14 28Z" fill="#EB4247"></path><path d="M56 0L56 14L42 14L42 -6.11959e-07L56 0Z" fill="#EB4247"></path><path d="M70 42L70 56L56 56L56 42L70 42Z" fill="#EB4247"></path><path d="M56 56L56 70L42 70L42 56L56 56Z" fill="#EB4247"></path></svg> 